<svg id="Layer_1" data-name="Layer 1" xmlns="http://www.w3.org/2000/svg" viewBox="0 0 500 500"><defs><style>.cls-1{fill:#6cb2e2;}.cls-2{fill:#f15b28;}</style></defs><title>Quick-Logo-Artboard 3</title><path class="cls-1" d="M355.12,308.48l-5.37,38.41,145.39-17.67L436,269.76a8.19,8.19,0,0,0-6.65-2.38L292.64,281.49a8.09,8.09,0,0,0-7.19,6.93l-9.51,67.44h0q4.31-29.7,8.62-59.4Z"/><path class="cls-1" d="M349.75,346.89l5.37-38.41-70.52-12q-4.31,29.7-8.62,59.4L265.3,429.46a8.12,8.12,0,0,0,2.31,6.92L328.74,497Z"/><path class="cls-2" d="M193.53,353.35l-38.47-4.87,19.59,145.15,58.67-59.95a8.24,8.24,0,0,0,2.29-6.69L219.69,290.51a8.1,8.1,0,0,0-7-7.1l-67.56-8.61v0l59.52,7.83Z"/><path class="cls-2" d="M155.06,348.48l38.47,4.87,11.1-70.68-59.52-7.83-73.74-9.71a8.13,8.13,0,0,0-6.88,2.4L4.65,329.46Z"/><path class="cls-1" d="M143.12,187.75l5.38-38.4L3.11,167l59.16,59.46a8.21,8.21,0,0,0,6.66,2.37l136.68-14.11a8.09,8.09,0,0,0,7.19-6.93l9.51-67.43h0q-4.31,29.7-8.62,59.4Z"/><path class="cls-1" d="M148.5,149.35l-5.38,38.4,70.53,12q4.31-29.7,8.62-59.4L233,66.77a8.1,8.1,0,0,0-2.31-6.91L169.51-.79Z"/><path class="cls-2" d="M312.32,143.42l38.48,4.86L331.21,3.14l-58.68,60a8.2,8.2,0,0,0-2.28,6.69l15.91,136.47a8.1,8.1,0,0,0,7,7.11L360.75,222v0l-59.51-7.83Z"/><path class="cls-2" d="M350.8,148.28l-38.48-4.86L301.23,214.1l59.51,7.83,73.74,9.71a8.13,8.13,0,0,0,6.89-2.41l59.83-61.92Z"/></svg>